<?xml version="1.0" encoding="utf-8" standalone="no"?>
<!DOCTYPE svg PUBLIC "-//W3C//DTD SVG 1.1//EN"
  "http://www.w3.org/Graphics/SVG/1.1/DTD/svg11.dtd">
<!-- Created with matplotlib (https://matplotlib.org/) -->
<svg height="576pt" version="1.1" viewBox="0 0 792 576" width="792pt" xmlns="http://www.w3.org/2000/svg" xmlns:xlink="http://www.w3.org/1999/xlink">
 <defs>
  <style type="text/css">
*{stroke-linecap:butt;stroke-linejoin:round;}
  </style>
 </defs>
 <g id="figure_1">
  <g id="patch_1">
   <path d="M 0 576 
L 792 576 
L 792 0 
L 0 0 
z
" style="fill:#ffffff;"/>
  </g>
  <g id="axes_1">
   <g id="patch_2">
    <path d="M 99 512.64 
L 712.8 512.64 
L 712.8 69.12 
L 99 69.12 
z
" style="fill:#e5e5e5;"/>
   </g>
   <g id="matplotlib.axis_1">
    <g id="xtick_1">
     <g id="line2d_1">
      <path clip-path="url(#p7ceada5bca)" d="M 126.9 512.64 
L 126.9 69.12 
" style="fill:none;stroke:#ffffff;stroke-linecap:square;stroke-width:1.4;"/>
     </g>
     <g id="line2d_2">
      <defs>
       <path d="M 0 0 
L 0 5 
" id="m404c84c3ba" style="stroke:#7f7f7f;stroke-width:1.4;"/>
      </defs>
      <g>
       <use style="fill:#7f7f7f;stroke:#7f7f7f;stroke-width:1.4;" x="126.9" xlink:href="#m404c84c3ba" y="512.64"/>
      </g>
     </g>
     <g id="text_1">
      <!-- 0 -->
      <defs>
       <path d="M 31.78125 66.40625 
Q 24.171875 66.40625 20.328125 58.90625 
Q 16.5 51.421875 16.5 36.375 
Q 16.5 21.390625 20.328125 13.890625 
Q 24.171875 6.390625 31.78125 6.390625 
Q 39.453125 6.390625 43.28125 13.890625 
Q 47.125 21.390625 47.125 36.375 
Q 47.125 51.421875 43.28125 58.90625 
Q 39.453125 66.40625 31.78125 66.40625 
z
M 31.78125 74.21875 
Q 44.046875 74.21875 50.515625 64.515625 
Q 56.984375 54.828125 56.984375 36.375 
Q 56.984375 17.96875 50.515625 8.265625 
Q 44.046875 -1.421875 31.78125 -1.421875 
Q 19.53125 -1.421875 13.0625 8.265625 
Q 6.59375 17.96875 6.59375 36.375 
Q 6.59375 54.828125 13.0625 64.515625 
Q 19.53125 74.21875 31.78125 74.21875 
z
" id="DejaVuSans-48"/>
      </defs>
      <g style="fill:#7f7f7f;" transform="translate(123.0825 527.758125)scale(0.12 -0.12)">
       <use xlink:href="#DejaVuSans-48"/>
      </g>
     </g>
    </g>
    <g id="xtick_2">
     <g id="line2d_3">
      <path clip-path="url(#p7ceada5bca)" d="M 200.321053 512.64 
L 200.321053 69.12 
" style="fill:none;stroke:#ffffff;stroke-linecap:square;stroke-width:1.4;"/>
     </g>
     <g id="line2d_4">
      <g>
       <use style="fill:#7f7f7f;stroke:#7f7f7f;stroke-width:1.4;" x="200.321053" xlink:href="#m404c84c3ba" y="512.64"/>
      </g>
     </g>
     <g id="text_2">
      <!-- 5 -->
      <defs>
       <path d="M 10.796875 72.90625 
L 49.515625 72.90625 
L 49.515625 64.59375 
L 19.828125 64.59375 
L 19.828125 46.734375 
Q 21.96875 47.46875 24.109375 47.828125 
Q 26.265625 48.1875 28.421875 48.1875 
Q 40.625 48.1875 47.75 41.5 
Q 54.890625 34.8125 54.890625 23.390625 
Q 54.890625 11.625 47.5625 5.09375 
Q 40.234375 -1.421875 26.90625 -1.421875 
Q 22.3125 -1.421875 17.546875 -0.640625 
Q 12.796875 0.140625 7.71875 1.703125 
L 7.71875 11.625 
Q 12.109375 9.234375 16.796875 8.0625 
Q 21.484375 6.890625 26.703125 6.890625 
Q 35.15625 6.890625 40.078125 11.328125 
Q 45.015625 15.765625 45.015625 23.390625 
Q 45.015625 31 40.078125 35.4375 
Q 35.15625 39.890625 26.703125 39.890625 
Q 22.75 39.890625 18.8125 39.015625 
Q 14.890625 38.140625 10.796875 36.28125 
z
" id="DejaVuSans-53"/>
      </defs>
      <g style="fill:#7f7f7f;" transform="translate(196.503553 527.758125)scale(0.12 -0.12)">
       <use xlink:href="#DejaVuSans-53"/>
      </g>
     </g>
    </g>
    <g id="xtick_3">
     <g id="line2d_5">
      <path clip-path="url(#p7ceada5bca)" d="M 273.742105 512.64 
L 273.742105 69.12 
" style="fill:none;stroke:#ffffff;stroke-linecap:square;stroke-width:1.4;"/>
     </g>
     <g id="line2d_6">
      <g>
       <use style="fill:#7f7f7f;stroke:#7f7f7f;stroke-width:1.4;" x="273.742105" xlink:href="#m404c84c3ba" y="512.64"/>
      </g>
     </g>
     <g id="text_3">
      <!-- 10 -->
      <defs>
       <path d="M 12.40625 8.296875 
L 28.515625 8.296875 
L 28.515625 63.921875 
L 10.984375 60.40625 
L 10.984375 69.390625 
L 28.421875 72.90625 
L 38.28125 72.90625 
L 38.28125 8.296875 
L 54.390625 8.296875 
L 54.390625 0 
L 12.40625 0 
z
" id="DejaVuSans-49"/>
      </defs>
      <g style="fill:#7f7f7f;" transform="translate(266.107105 527.758125)scale(0.12 -0.12)">
       <use xlink:href="#DejaVuSans-49"/>
       <use x="63.623047" xlink:href="#DejaVuSans-48"/>
      </g>
     </g>
    </g>
    <g id="xtick_4">
     <g id="line2d_7">
      <path clip-path="url(#p7ceada5bca)" d="M 347.163158 512.64 
L 347.163158 69.12 
" style="fill:none;stroke:#ffffff;stroke-linecap:square;stroke-width:1.4;"/>
     </g>
     <g id="line2d_8">
      <g>
       <use style="fill:#7f7f7f;stroke:#7f7f7f;stroke-width:1.4;" x="347.163158" xlink:href="#m404c84c3ba" y="512.64"/>
      </g>
     </g>
     <g id="text_4">
      <!-- 15 -->
      <g style="fill:#7f7f7f;" transform="translate(339.528158 527.758125)scale(0.12 -0.12)">
       <use xlink:href="#DejaVuSans-49"/>
       <use x="63.623047" xlink:href="#DejaVuSans-53"/>
      </g>
     </g>
    </g>
    <g id="xtick_5">
     <g id="line2d_9">
      <path clip-path="url(#p7ceada5bca)" d="M 420.584211 512.64 
L 420.584211 69.12 
" style="fill:none;stroke:#ffffff;stroke-linecap:square;stroke-width:1.4;"/>
     </g>
     <g id="line2d_10">
      <g>
       <use style="fill:#7f7f7f;stroke:#7f7f7f;stroke-width:1.4;" x="420.584211" xlink:href="#m404c84c3ba" y="512.64"/>
      </g>
     </g>
     <g id="text_5">
      <!-- 20 -->
      <defs>
       <path d="M 19.1875 8.296875 
L 53.609375 8.296875 
L 53.609375 0 
L 7.328125 0 
L 7.328125 8.296875 
Q 12.9375 14.109375 22.625 23.890625 
Q 32.328125 33.6875 34.8125 36.53125 
Q 39.546875 41.84375 41.421875 45.53125 
Q 43.3125 49.21875 43.3125 52.78125 
Q 43.3125 58.59375 39.234375 62.25 
Q 35.15625 65.921875 28.609375 65.921875 
Q 23.96875 65.921875 18.8125 64.3125 
Q 13.671875 62.703125 7.8125 59.421875 
L 7.8125 69.390625 
Q 13.765625 71.78125 18.9375 73 
Q 24.125 74.21875 28.421875 74.21875 
Q 39.75 74.21875 46.484375 68.546875 
Q 53.21875 62.890625 53.21875 53.421875 
Q 53.21875 48.921875 51.53125 44.890625 
Q 49.859375 40.875 45.40625 35.40625 
Q 44.1875 33.984375 37.640625 27.21875 
Q 31.109375 20.453125 19.1875 8.296875 
z
" id="DejaVuSans-50"/>
      </defs>
      <g style="fill:#7f7f7f;" transform="translate(412.949211 527.758125)scale(0.12 -0.12)">
       <use xlink:href="#DejaVuSans-50"/>
       <use x="63.623047" xlink:href="#DejaVuSans-48"/>
      </g>
     </g>
    </g>
    <g id="xtick_6">
     <g id="line2d_11">
      <path clip-path="url(#p7ceada5bca)" d="M 494.005263 512.64 
L 494.005263 69.12 
" style="fill:none;stroke:#ffffff;stroke-linecap:square;stroke-width:1.4;"/>
     </g>
     <g id="line2d_12">
      <g>
       <use style="fill:#7f7f7f;stroke:#7f7f7f;stroke-width:1.4;" x="494.005263" xlink:href="#m404c84c3ba" y="512.64"/>
      </g>
     </g>
     <g id="text_6">
      <!-- 25 -->
      <g style="fill:#7f7f7f;" transform="translate(486.370263 527.758125)scale(0.12 -0.12)">
       <use xlink:href="#DejaVuSans-50"/>
       <use x="63.623047" xlink:href="#DejaVuSans-53"/>
      </g>
     </g>
    </g>
    <g id="xtick_7">
     <g id="line2d_13">
      <path clip-path="url(#p7ceada5bca)" d="M 567.426316 512.64 
L 567.426316 69.12 
" style="fill:none;stroke:#ffffff;stroke-linecap:square;stroke-width:1.4;"/>
     </g>
     <g id="line2d_14">
      <g>
       <use style="fill:#7f7f7f;stroke:#7f7f7f;stroke-width:1.4;" x="567.426316" xlink:href="#m404c84c3ba" y="512.64"/>
      </g>
     </g>
     <g id="text_7">
      <!-- 30 -->
      <defs>
       <path d="M 40.578125 39.3125 
Q 47.65625 37.796875 51.625 33 
Q 55.609375 28.21875 55.609375 21.1875 
Q 55.609375 10.40625 48.1875 4.484375 
Q 40.765625 -1.421875 27.09375 -1.421875 
Q 22.515625 -1.421875 17.65625 -0.515625 
Q 12.796875 0.390625 7.625 2.203125 
L 7.625 11.71875 
Q 11.71875 9.328125 16.59375 8.109375 
Q 21.484375 6.890625 26.8125 6.890625 
Q 36.078125 6.890625 40.9375 10.546875 
Q 45.796875 14.203125 45.796875 21.1875 
Q 45.796875 27.640625 41.28125 31.265625 
Q 36.765625 34.90625 28.71875 34.90625 
L 20.21875 34.90625 
L 20.21875 43.015625 
L 29.109375 43.015625 
Q 36.375 43.015625 40.234375 45.921875 
Q 44.09375 48.828125 44.09375 54.296875 
Q 44.09375 59.90625 40.109375 62.90625 
Q 36.140625 65.921875 28.71875 65.921875 
Q 24.65625 65.921875 20.015625 65.03125 
Q 15.375 64.15625 9.8125 62.3125 
L 9.8125 71.09375 
Q 15.4375 72.65625 20.34375 73.4375 
Q 25.25 74.21875 29.59375 74.21875 
Q 40.828125 74.21875 47.359375 69.109375 
Q 53.90625 64.015625 53.90625 55.328125 
Q 53.90625 49.265625 50.4375 45.09375 
Q 46.96875 40.921875 40.578125 39.3125 
z
" id="DejaVuSans-51"/>
      </defs>
      <g style="fill:#7f7f7f;" transform="translate(559.791316 527.758125)scale(0.12 -0.12)">
       <use xlink:href="#DejaVuSans-51"/>
       <use x="63.623047" xlink:href="#DejaVuSans-48"/>
      </g>
     </g>
    </g>
    <g id="xtick_8">
     <g id="line2d_15">
      <path clip-path="url(#p7ceada5bca)" d="M 640.847368 512.64 
L 640.847368 69.12 
" style="fill:none;stroke:#ffffff;stroke-linecap:square;stroke-width:1.4;"/>
     </g>
     <g id="line2d_16">
      <g>
       <use style="fill:#7f7f7f;stroke:#7f7f7f;stroke-width:1.4;" x="640.847368" xlink:href="#m404c84c3ba" y="512.64"/>
      </g>
     </g>
     <g id="text_8">
      <!-- 35 -->
      <g style="fill:#7f7f7f;" transform="translate(633.212368 527.758125)scale(0.12 -0.12)">
       <use xlink:href="#DejaVuSans-51"/>
       <use x="63.623047" xlink:href="#DejaVuSans-53"/>
      </g>
     </g>
    </g>
    <g id="xtick_9">
     <g id="line2d_17">
      <path clip-path="url(#p7ceada5bca)" d="M 163.610526 512.64 
L 163.610526 69.12 
" style="fill:none;stroke:#f2f2f2;stroke-linecap:square;stroke-width:0.7;"/>
     </g>
     <g id="line2d_18"/>
    </g>
    <g id="xtick_10">
     <g id="line2d_19">
      <path clip-path="url(#p7ceada5bca)" d="M 237.031579 512.64 
L 237.031579 69.12 
" style="fill:none;stroke:#f2f2f2;stroke-linecap:square;stroke-width:0.7;"/>
     </g>
     <g id="line2d_20"/>
    </g>
    <g id="xtick_11">
     <g id="line2d_21">
      <path clip-path="url(#p7ceada5bca)" d="M 310.452632 512.64 
L 310.452632 69.12 
" style="fill:none;stroke:#f2f2f2;stroke-linecap:square;stroke-width:0.7;"/>
     </g>
     <g id="line2d_22"/>
    </g>
    <g id="xtick_12">
     <g id="line2d_23">
      <path clip-path="url(#p7ceada5bca)" d="M 383.873684 512.64 
L 383.873684 69.12 
" style="fill:none;stroke:#f2f2f2;stroke-linecap:square;stroke-width:0.7;"/>
     </g>
     <g id="line2d_24"/>
    </g>
    <g id="xtick_13">
     <g id="line2d_25">
      <path clip-path="url(#p7ceada5bca)" d="M 457.294737 512.64 
L 457.294737 69.12 
" style="fill:none;stroke:#f2f2f2;stroke-linecap:square;stroke-width:0.7;"/>
     </g>
     <g id="line2d_26"/>
    </g>
    <g id="xtick_14">
     <g id="line2d_27">
      <path clip-path="url(#p7ceada5bca)" d="M 530.715789 512.64 
L 530.715789 69.12 
" style="fill:none;stroke:#f2f2f2;stroke-linecap:square;stroke-width:0.7;"/>
     </g>
     <g id="line2d_28"/>
    </g>
    <g id="xtick_15">
     <g id="line2d_29">
      <path clip-path="url(#p7ceada5bca)" d="M 604.136842 512.64 
L 604.136842 69.12 
" style="fill:none;stroke:#f2f2f2;stroke-linecap:square;stroke-width:0.7;"/>
     </g>
     <g id="line2d_30"/>
    </g>
    <g id="xtick_16">
     <g id="line2d_31">
      <path clip-path="url(#p7ceada5bca)" d="M 677.557895 512.64 
L 677.557895 69.12 
" style="fill:none;stroke:#f2f2f2;stroke-linecap:square;stroke-width:0.7;"/>
     </g>
     <g id="line2d_32"/>
    </g>
   </g>
   <g id="matplotlib.axis_2">
    <g id="ytick_1">
     <g id="line2d_33">
      <path clip-path="url(#p7ceada5bca)" d="M 99 476.171252 
L 712.8 476.171252 
" style="fill:none;stroke:#ffffff;stroke-linecap:square;stroke-width:1.4;"/>
     </g>
     <g id="line2d_34">
      <defs>
       <path d="M 0 0 
L -5 0 
" id="m84eacd272c" style="stroke:#7f7f7f;stroke-width:1.4;"/>
      </defs>
      <g>
       <use style="fill:#7f7f7f;stroke:#7f7f7f;stroke-width:1.4;" x="99" xlink:href="#m84eacd272c" y="476.171252"/>
      </g>
     </g>
     <g id="text_9">
      <!-- −3000000 -->
      <defs>
       <path d="M 10.59375 35.5 
L 73.1875 35.5 
L 73.1875 27.203125 
L 10.59375 27.203125 
z
" id="DejaVuSans-8722"/>
      </defs>
      <g style="fill:#7f7f7f;" transform="translate(29.499375 480.730315)scale(0.12 -0.12)">
       <use xlink:href="#DejaVuSans-8722"/>
       <use x="83.789062" xlink:href="#DejaVuSans-51"/>
       <use x="147.412109" xlink:href="#DejaVuSans-48"/>
       <use x="211.035156" xlink:href="#DejaVuSans-48"/>
       <use x="274.658203" xlink:href="#DejaVuSans-48"/>
       <use x="338.28125" xlink:href="#DejaVuSans-48"/>
       <use x="401.904297" xlink:href="#DejaVuSans-48"/>
       <use x="465.527344" xlink:href="#DejaVuSans-48"/>
      </g>
     </g>
    </g>
    <g id="ytick_2">
     <g id="line2d_35">
      <path clip-path="url(#p7ceada5bca)" d="M 99 409.636989 
L 712.8 409.636989 
" style="fill:none;stroke:#ffffff;stroke-linecap:square;stroke-width:1.4;"/>
     </g>
     <g id="line2d_36">
      <g>
       <use style="fill:#7f7f7f;stroke:#7f7f7f;stroke-width:1.4;" x="99" xlink:href="#m84eacd272c" y="409.636989"/>
      </g>
     </g>
     <g id="text_10">
      <!-- −2500000 -->
      <g style="fill:#7f7f7f;" transform="translate(29.499375 414.196052)scale(0.12 -0.12)">
       <use xlink:href="#DejaVuSans-8722"/>
       <use x="83.789062" xlink:href="#DejaVuSans-50"/>
       <use x="147.412109" xlink:href="#DejaVuSans-53"/>
       <use x="211.035156" xlink:href="#DejaVuSans-48"/>
       <use x="274.658203" xlink:href="#DejaVuSans-48"/>
       <use x="338.28125" xlink:href="#DejaVuSans-48"/>
       <use x="401.904297" xlink:href="#DejaVuSans-48"/>
       <use x="465.527344" xlink:href="#DejaVuSans-48"/>
      </g>
     </g>
    </g>
    <g id="ytick_3">
     <g id="line2d_37">
      <path clip-path="url(#p7ceada5bca)" d="M 99 343.102726 
L 712.8 343.102726 
" style="fill:none;stroke:#ffffff;stroke-linecap:square;stroke-width:1.4;"/>
     </g>
     <g id="line2d_38">
      <g>
       <use style="fill:#7f7f7f;stroke:#7f7f7f;stroke-width:1.4;" x="99" xlink:href="#m84eacd272c" y="343.102726"/>
      </g>
     </g>
     <g id="text_11">
      <!-- −2000000 -->
      <g style="fill:#7f7f7f;" transform="translate(29.499375 347.661789)scale(0.12 -0.12)">
       <use xlink:href="#DejaVuSans-8722"/>
       <use x="83.789062" xlink:href="#DejaVuSans-50"/>
       <use x="147.412109" xlink:href="#DejaVuSans-48"/>
       <use x="211.035156" xlink:href="#DejaVuSans-48"/>
       <use x="274.658203" xlink:href="#DejaVuSans-48"/>
       <use x="338.28125" xlink:href="#DejaVuSans-48"/>
       <use x="401.904297" xlink:href="#DejaVuSans-48"/>
       <use x="465.527344" xlink:href="#DejaVuSans-48"/>
      </g>
     </g>
    </g>
    <g id="ytick_4">
     <g id="line2d_39">
      <path clip-path="url(#p7ceada5bca)" d="M 99 276.568463 
L 712.8 276.568463 
" style="fill:none;stroke:#ffffff;stroke-linecap:square;stroke-width:1.4;"/>
     </g>
     <g id="line2d_40">
      <g>
       <use style="fill:#7f7f7f;stroke:#7f7f7f;stroke-width:1.4;" x="99" xlink:href="#m84eacd272c" y="276.568463"/>
      </g>
     </g>
     <g id="text_12">
      <!-- −1500000 -->
      <g style="fill:#7f7f7f;" transform="translate(29.499375 281.127525)scale(0.12 -0.12)">
       <use xlink:href="#DejaVuSans-8722"/>
       <use x="83.789062" xlink:href="#DejaVuSans-49"/>
       <use x="147.412109" xlink:href="#DejaVuSans-53"/>
       <use x="211.035156" xlink:href="#DejaVuSans-48"/>
       <use x="274.658203" xlink:href="#DejaVuSans-48"/>
       <use x="338.28125" xlink:href="#DejaVuSans-48"/>
       <use x="401.904297" xlink:href="#DejaVuSans-48"/>
       <use x="465.527344" xlink:href="#DejaVuSans-48"/>
      </g>
     </g>
    </g>
    <g id="ytick_5">
     <g id="line2d_41">
      <path clip-path="url(#p7ceada5bca)" d="M 99 210.0342 
L 712.8 210.0342 
" style="fill:none;stroke:#ffffff;stroke-linecap:square;stroke-width:1.4;"/>
     </g>
     <g id="line2d_42">
      <g>
       <use style="fill:#7f7f7f;stroke:#7f7f7f;stroke-width:1.4;" x="99" xlink:href="#m84eacd272c" y="210.0342"/>
      </g>
     </g>
     <g id="text_13">
      <!-- −1000000 -->
      <g style="fill:#7f7f7f;" transform="translate(29.499375 214.593262)scale(0.12 -0.12)">
       <use xlink:href="#DejaVuSans-8722"/>
       <use x="83.789062" xlink:href="#DejaVuSans-49"/>
       <use x="147.412109" xlink:href="#DejaVuSans-48"/>
       <use x="211.035156" xlink:href="#DejaVuSans-48"/>
       <use x="274.658203" xlink:href="#DejaVuSans-48"/>
       <use x="338.28125" xlink:href="#DejaVuSans-48"/>
       <use x="401.904297" xlink:href="#DejaVuSans-48"/>
       <use x="465.527344" xlink:href="#DejaVuSans-48"/>
      </g>
     </g>
    </g>
    <g id="ytick_6">
     <g id="line2d_43">
      <path clip-path="url(#p7ceada5bca)" d="M 99 143.499937 
L 712.8 143.499937 
" style="fill:none;stroke:#ffffff;stroke-linecap:square;stroke-width:1.4;"/>
     </g>
     <g id="line2d_44">
      <g>
       <use style="fill:#7f7f7f;stroke:#7f7f7f;stroke-width:1.4;" x="99" xlink:href="#m84eacd272c" y="143.499937"/>
      </g>
     </g>
     <g id="text_14">
      <!-- −500000 -->
      <g style="fill:#7f7f7f;" transform="translate(37.134375 148.058999)scale(0.12 -0.12)">
       <use xlink:href="#DejaVuSans-8722"/>
       <use x="83.789062" xlink:href="#DejaVuSans-53"/>
       <use x="147.412109" xlink:href="#DejaVuSans-48"/>
       <use x="211.035156" xlink:href="#DejaVuSans-48"/>
       <use x="274.658203" xlink:href="#DejaVuSans-48"/>
       <use x="338.28125" xlink:href="#DejaVuSans-48"/>
       <use x="401.904297" xlink:href="#DejaVuSans-48"/>
      </g>
     </g>
    </g>
    <g id="ytick_7">
     <g id="line2d_45">
      <path clip-path="url(#p7ceada5bca)" d="M 99 76.965673 
L 712.8 76.965673 
" style="fill:none;stroke:#ffffff;stroke-linecap:square;stroke-width:1.4;"/>
     </g>
     <g id="line2d_46">
      <g>
       <use style="fill:#7f7f7f;stroke:#7f7f7f;stroke-width:1.4;" x="99" xlink:href="#m84eacd272c" y="76.965673"/>
      </g>
     </g>
     <g id="text_15">
      <!-- 0 -->
      <g style="fill:#7f7f7f;" transform="translate(85.365 81.524736)scale(0.12 -0.12)">
       <use xlink:href="#DejaVuSans-48"/>
      </g>
     </g>
    </g>
    <g id="ytick_8">
     <g id="line2d_47">
      <path clip-path="url(#p7ceada5bca)" d="M 99 509.438384 
L 712.8 509.438384 
" style="fill:none;stroke:#f2f2f2;stroke-linecap:square;stroke-width:0.7;"/>
     </g>
     <g id="line2d_48"/>
    </g>
    <g id="ytick_9">
     <g id="line2d_49">
      <path clip-path="url(#p7ceada5bca)" d="M 99 442.904121 
L 712.8 442.904121 
" style="fill:none;stroke:#f2f2f2;stroke-linecap:square;stroke-width:0.7;"/>
     </g>
     <g id="line2d_50"/>
    </g>
    <g id="ytick_10">
     <g id="line2d_51">
      <path clip-path="url(#p7ceada5bca)" d="M 99 376.369858 
L 712.8 376.369858 
" style="fill:none;stroke:#f2f2f2;stroke-linecap:square;stroke-width:0.7;"/>
     </g>
     <g id="line2d_52"/>
    </g>
    <g id="ytick_11">
     <g id="line2d_53">
      <path clip-path="url(#p7ceada5bca)" d="M 99 309.835595 
L 712.8 309.835595 
" style="fill:none;stroke:#f2f2f2;stroke-linecap:square;stroke-width:0.7;"/>
     </g>
     <g id="line2d_54"/>
    </g>
    <g id="ytick_12">
     <g id="line2d_55">
      <path clip-path="url(#p7ceada5bca)" d="M 99 243.301331 
L 712.8 243.301331 
" style="fill:none;stroke:#f2f2f2;stroke-linecap:square;stroke-width:0.7;"/>
     </g>
     <g id="line2d_56"/>
    </g>
    <g id="ytick_13">
     <g id="line2d_57">
      <path clip-path="url(#p7ceada5bca)" d="M 99 176.767068 
L 712.8 176.767068 
" style="fill:none;stroke:#f2f2f2;stroke-linecap:square;stroke-width:0.7;"/>
     </g>
     <g id="line2d_58"/>
    </g>
    <g id="ytick_14">
     <g id="line2d_59">
      <path clip-path="url(#p7ceada5bca)" d="M 99 110.232805 
L 712.8 110.232805 
" style="fill:none;stroke:#f2f2f2;stroke-linecap:square;stroke-width:0.7;"/>
     </g>
     <g id="line2d_60"/>
    </g>
   </g>
   <g id="line2d_61">
    <path clip-path="url(#p7ceada5bca)" d="M 126.9 492.48 
L 141.584211 91.064958 
L 156.268421 90.929499 
L 170.952632 90.551347 
L 185.636842 90.135186 
L 200.321053 89.689385 
L 215.005263 89.488074 
L 229.689474 89.388968 
L 244.373684 89.353125 
L 259.057895 89.31599 
L 273.742105 89.306302 
L 288.426316 89.302933 
L 303.110526 89.299789 
L 317.794737 89.296678 
L 332.478947 89.297279 
L 347.163158 89.289731 
L 361.847368 89.29016 
L 376.531579 89.290343 
L 391.215789 89.291072 
L 405.9 89.288259 
L 420.584211 89.287161 
L 435.268421 89.286463 
L 449.952632 89.286983 
L 464.636842 89.284921 
L 479.321053 89.285338 
L 494.005263 89.283558 
L 508.689474 89.283282 
L 523.373684 89.280622 
L 538.057895 89.281095 
L 552.742105 89.280632 
L 567.426316 89.280311 
L 582.110526 89.281528 
L 596.794737 89.28136 
L 611.478947 89.281308 
L 626.163158 89.281774 
L 640.847368 89.280441 
L 655.531579 89.280179 
L 670.215789 89.28 
L 684.9 89.280483 
" style="fill:none;stroke:#000000;stroke-linecap:square;"/>
   </g>
   <g id="patch_3">
    <path d="M 99 512.64 
L 99 69.12 
" style="fill:none;opacity:0;"/>
   </g>
   <g id="patch_4">
    <path d="M 712.8 512.64 
L 712.8 69.12 
" style="fill:none;opacity:0;"/>
   </g>
   <g id="patch_5">
    <path d="M 99 512.64 
L 712.8 512.64 
" style="fill:none;opacity:0;"/>
   </g>
   <g id="patch_6">
    <path d="M 99 69.12 
L 712.8 69.12 
" style="fill:none;opacity:0;"/>
   </g>
   <g id="legend_1"/>
  </g>
  <g id="text_16">
   <!-- Evolution of ELBO -->
   <defs>
    <path d="M 9.8125 72.90625 
L 55.90625 72.90625 
L 55.90625 64.59375 
L 19.671875 64.59375 
L 19.671875 43.015625 
L 54.390625 43.015625 
L 54.390625 34.71875 
L 19.671875 34.71875 
L 19.671875 8.296875 
L 56.78125 8.296875 
L 56.78125 0 
L 9.8125 0 
z
" id="DejaVuSans-69"/>
    <path d="M 2.984375 54.6875 
L 12.5 54.6875 
L 29.59375 8.796875 
L 46.6875 54.6875 
L 56.203125 54.6875 
L 35.6875 0 
L 23.484375 0 
z
" id="DejaVuSans-118"/>
    <path d="M 30.609375 48.390625 
Q 23.390625 48.390625 19.1875 42.75 
Q 14.984375 37.109375 14.984375 27.296875 
Q 14.984375 17.484375 19.15625 11.84375 
Q 23.34375 6.203125 30.609375 6.203125 
Q 37.796875 6.203125 41.984375 11.859375 
Q 46.1875 17.53125 46.1875 27.296875 
Q 46.1875 37.015625 41.984375 42.703125 
Q 37.796875 48.390625 30.609375 48.390625 
z
M 30.609375 56 
Q 42.328125 56 49.015625 48.375 
Q 55.71875 40.765625 55.71875 27.296875 
Q 55.71875 13.875 49.015625 6.21875 
Q 42.328125 -1.421875 30.609375 -1.421875 
Q 18.84375 -1.421875 12.171875 6.21875 
Q 5.515625 13.875 5.515625 27.296875 
Q 5.515625 40.765625 12.171875 48.375 
Q 18.84375 56 30.609375 56 
z
" id="DejaVuSans-111"/>
    <path d="M 9.421875 75.984375 
L 18.40625 75.984375 
L 18.40625 0 
L 9.421875 0 
z
" id="DejaVuSans-108"/>
    <path d="M 8.5 21.578125 
L 8.5 54.6875 
L 17.484375 54.6875 
L 17.484375 21.921875 
Q 17.484375 14.15625 20.5 10.265625 
Q 23.53125 6.390625 29.59375 6.390625 
Q 36.859375 6.390625 41.078125 11.03125 
Q 45.3125 15.671875 45.3125 23.6875 
L 45.3125 54.6875 
L 54.296875 54.6875 
L 54.296875 0 
L 45.3125 0 
L 45.3125 8.40625 
Q 42.046875 3.421875 37.71875 1 
Q 33.40625 -1.421875 27.6875 -1.421875 
Q 18.265625 -1.421875 13.375 4.4375 
Q 8.5 10.296875 8.5 21.578125 
z
M 31.109375 56 
z
" id="DejaVuSans-117"/>
    <path d="M 18.3125 70.21875 
L 18.3125 54.6875 
L 36.8125 54.6875 
L 36.8125 47.703125 
L 18.3125 47.703125 
L 18.3125 18.015625 
Q 18.3125 11.328125 20.140625 9.421875 
Q 21.96875 7.515625 27.59375 7.515625 
L 36.8125 7.515625 
L 36.8125 0 
L 27.59375 0 
Q 17.1875 0 13.234375 3.875 
Q 9.28125 7.765625 9.28125 18.015625 
L 9.28125 47.703125 
L 2.6875 47.703125 
L 2.6875 54.6875 
L 9.28125 54.6875 
L 9.28125 70.21875 
z
" id="DejaVuSans-116"/>
    <path d="M 9.421875 54.6875 
L 18.40625 54.6875 
L 18.40625 0 
L 9.421875 0 
z
M 9.421875 75.984375 
L 18.40625 75.984375 
L 18.40625 64.59375 
L 9.421875 64.59375 
z
" id="DejaVuSans-105"/>
    <path d="M 54.890625 33.015625 
L 54.890625 0 
L 45.90625 0 
L 45.90625 32.71875 
Q 45.90625 40.484375 42.875 44.328125 
Q 39.84375 48.1875 33.796875 48.1875 
Q 26.515625 48.1875 22.3125 43.546875 
Q 18.109375 38.921875 18.109375 30.90625 
L 18.109375 0 
L 9.078125 0 
L 9.078125 54.6875 
L 18.109375 54.6875 
L 18.109375 46.1875 
Q 21.34375 51.125 25.703125 53.5625 
Q 30.078125 56 35.796875 56 
Q 45.21875 56 50.046875 50.171875 
Q 54.890625 44.34375 54.890625 33.015625 
z
" id="DejaVuSans-110"/>
    <path id="DejaVuSans-32"/>
    <path d="M 37.109375 75.984375 
L 37.109375 68.5 
L 28.515625 68.5 
Q 23.6875 68.5 21.796875 66.546875 
Q 19.921875 64.59375 19.921875 59.515625 
L 19.921875 54.6875 
L 34.71875 54.6875 
L 34.71875 47.703125 
L 19.921875 47.703125 
L 19.921875 0 
L 10.890625 0 
L 10.890625 47.703125 
L 2.296875 47.703125 
L 2.296875 54.6875 
L 10.890625 54.6875 
L 10.890625 58.5 
Q 10.890625 67.625 15.140625 71.796875 
Q 19.390625 75.984375 28.609375 75.984375 
z
" id="DejaVuSans-102"/>
    <path d="M 9.8125 72.90625 
L 19.671875 72.90625 
L 19.671875 8.296875 
L 55.171875 8.296875 
L 55.171875 0 
L 9.8125 0 
z
" id="DejaVuSans-76"/>
    <path d="M 19.671875 34.8125 
L 19.671875 8.109375 
L 35.5 8.109375 
Q 43.453125 8.109375 47.28125 11.40625 
Q 51.125 14.703125 51.125 21.484375 
Q 51.125 28.328125 47.28125 31.5625 
Q 43.453125 34.8125 35.5 34.8125 
z
M 19.671875 64.796875 
L 19.671875 42.828125 
L 34.28125 42.828125 
Q 41.5 42.828125 45.03125 45.53125 
Q 48.578125 48.25 48.578125 53.8125 
Q 48.578125 59.328125 45.03125 62.0625 
Q 41.5 64.796875 34.28125 64.796875 
z
M 9.8125 72.90625 
L 35.015625 72.90625 
Q 46.296875 72.90625 52.390625 68.21875 
Q 58.5 63.53125 58.5 54.890625 
Q 58.5 48.1875 55.375 44.234375 
Q 52.25 40.28125 46.1875 39.3125 
Q 53.46875 37.75 57.5 32.78125 
Q 61.53125 27.828125 61.53125 20.40625 
Q 61.53125 10.640625 54.890625 5.3125 
Q 48.25 0 35.984375 0 
L 9.8125 0 
z
" id="DejaVuSans-66"/>
    <path d="M 39.40625 66.21875 
Q 28.65625 66.21875 22.328125 58.203125 
Q 16.015625 50.203125 16.015625 36.375 
Q 16.015625 22.609375 22.328125 14.59375 
Q 28.65625 6.59375 39.40625 6.59375 
Q 50.140625 6.59375 56.421875 14.59375 
Q 62.703125 22.609375 62.703125 36.375 
Q 62.703125 50.203125 56.421875 58.203125 
Q 50.140625 66.21875 39.40625 66.21875 
z
M 39.40625 74.21875 
Q 54.734375 74.21875 63.90625 63.9375 
Q 73.09375 53.65625 73.09375 36.375 
Q 73.09375 19.140625 63.90625 8.859375 
Q 54.734375 -1.421875 39.40625 -1.421875 
Q 24.03125 -1.421875 14.8125 8.828125 
Q 5.609375 19.09375 5.609375 36.375 
Q 5.609375 53.65625 14.8125 63.9375 
Q 24.03125 74.21875 39.40625 74.21875 
z
" id="DejaVuSans-79"/>
   </defs>
   <g transform="translate(342.45375 28.8)scale(0.12 -0.12)">
    <use xlink:href="#DejaVuSans-69"/>
    <use x="63.183594" xlink:href="#DejaVuSans-118"/>
    <use x="122.363281" xlink:href="#DejaVuSans-111"/>
    <use x="183.544922" xlink:href="#DejaVuSans-108"/>
    <use x="211.328125" xlink:href="#DejaVuSans-117"/>
    <use x="274.707031" xlink:href="#DejaVuSans-116"/>
    <use x="313.916016" xlink:href="#DejaVuSans-105"/>
    <use x="341.699219" xlink:href="#DejaVuSans-111"/>
    <use x="402.880859" xlink:href="#DejaVuSans-110"/>
    <use x="466.259766" xlink:href="#DejaVuSans-32"/>
    <use x="498.046875" xlink:href="#DejaVuSans-111"/>
    <use x="559.228516" xlink:href="#DejaVuSans-102"/>
    <use x="594.433594" xlink:href="#DejaVuSans-32"/>
    <use x="626.220703" xlink:href="#DejaVuSans-69"/>
    <use x="689.404297" xlink:href="#DejaVuSans-76"/>
    <use x="745.117188" xlink:href="#DejaVuSans-66"/>
    <use x="813.705078" xlink:href="#DejaVuSans-79"/>
   </g>
  </g>
  <g id="text_17">
   <!-- TIME -->
   <defs>
    <path d="M -0.296875 72.90625 
L 61.375 72.90625 
L 61.375 64.59375 
L 35.5 64.59375 
L 35.5 0 
L 25.59375 0 
L 25.59375 64.59375 
L -0.296875 64.59375 
z
" id="DejaVuSans-84"/>
    <path d="M 9.8125 72.90625 
L 19.671875 72.90625 
L 19.671875 0 
L 9.8125 0 
z
" id="DejaVuSans-73"/>
    <path d="M 9.8125 72.90625 
L 24.515625 72.90625 
L 43.109375 23.296875 
L 61.8125 72.90625 
L 76.515625 72.90625 
L 76.515625 0 
L 66.890625 0 
L 66.890625 64.015625 
L 48.09375 14.015625 
L 38.1875 14.015625 
L 19.390625 64.015625 
L 19.390625 0 
L 9.8125 0 
z
" id="DejaVuSans-77"/>
   </defs>
   <g transform="translate(381.597188 547.2)scale(0.12 -0.12)">
    <use xlink:href="#DejaVuSans-84"/>
    <use x="61.083984" xlink:href="#DejaVuSans-73"/>
    <use x="90.576172" xlink:href="#DejaVuSans-77"/>
    <use x="176.855469" xlink:href="#DejaVuSans-69"/>
   </g>
  </g>
  <g id="text_18">
   <!-- ELBO -->
   <g transform="translate(42.91125 290.495625)rotate(-90)scale(0.12 -0.12)">
    <use xlink:href="#DejaVuSans-69"/>
    <use x="63.183594" xlink:href="#DejaVuSans-76"/>
    <use x="118.896484" xlink:href="#DejaVuSans-66"/>
    <use x="187.484375" xlink:href="#DejaVuSans-79"/>
   </g>
  </g>
 </g>
 <defs>
  <clipPath id="p7ceada5bca">
   <rect height="443.52" width="613.8" x="99" y="69.12"/>
  </clipPath>
 </defs>
</svg>
